<?xml version="1.0" encoding="UTF-8"?>
<svg id="Layer_1" xmlns="http://www.w3.org/2000/svg" version="1.1" viewBox="0 0 953.92 138.79">
  <!-- Generator: Adobe Illustrator 29.1.0, SVG Export Plug-In . SVG Version: 2.1.0 Build 142)  -->
  <defs>
    <style>
      .st0 {
        fill: #fff;
      }
    </style>
  </defs>
  <g>
    <g>
      <ellipse class="st0" cx="15.99" cy="69.43" rx="6.71" ry="40.5"/>
      <ellipse class="st0" cx="3.1" cy="69.43" rx="3.1" ry="23.48"/>
      <path class="st0" d="M119.19,26.31c-2.92,0-5.6,3.64-7.69,9.71-.31.89-1.6.81-1.78-.12-3.01-15.45-8.05-25.58-13.75-25.58-4.37,0-8.34,5.94-11.32,15.66-.28.91-1.57.86-1.78-.06-3.59-15.8-9.1-25.91-15.28-25.91-5.38,0-10.25,7.67-13.8,20.09-.24.84-1.4.9-1.74.1-2.64-6.23-5.82-9.86-9.24-9.86-9.22,0-16.69,26.45-16.69,59.08s7.47,59.08,16.69,59.08c3.42,0,6.59-3.63,9.24-9.86.34-.8,1.5-.74,1.74.1,3.54,12.42,8.42,20.09,13.8,20.09,6.18,0,11.69-10.11,15.28-25.91.21-.92,1.5-.97,1.78-.06,2.97,9.72,6.95,15.66,11.32,15.66,5.7,0,10.74-10.13,13.75-25.58.18-.93,1.47-1.02,1.78-.12,2.1,6.06,4.77,9.71,7.69,9.71,6.72,0,12.17-19.29,12.17-43.08s-5.45-43.08-12.17-43.08ZM76.95,69.87c-4.46,0-8.07-5.75-8.07-12.85s3.61-12.85,8.07-12.85,8.07,5.75,8.07,12.85-3.61,12.85-8.07,12.85ZM101.17,69.87c-4.46,0-8.07-5.75-8.07-12.85s3.61-12.85,8.07-12.85,8.07,5.75,8.07,12.85-3.61,12.85-8.07,12.85Z"/>
    </g>
    <g>
      <path class="st0" d="M157.97,111.08V27.92h17.35v67.96h42.81v15.19h-60.16Z"/>
      <path class="st0" d="M250.26,112.21c-8.56,0-15.13-2.26-19.71-6.78-4.59-4.52-6.88-10.68-6.88-18.48v-37.47h17.04v34.19c0,4.45,1.14,7.79,3.44,10.01s5.73,3.34,10.32,3.34,8.37-1.2,10.93-3.59c2.57-2.39,3.85-5.82,3.85-10.27v-33.67h17.04v44.76h8.42v16.83h-17.25v-10.06h-4.31c-2.46,3.63-5.46,6.4-8.98,8.32s-8.16,2.88-13.91,2.88Z"/>
      <path class="st0" d="M333.11,112.31c-6.43,0-12.06-1.32-16.89-3.95-4.83-2.63-8.59-6.35-11.29-11.14-2.7-4.79-4.05-10.44-4.05-16.94s1.33-12.15,4-16.94c2.67-4.79,6.43-8.5,11.29-11.14,4.86-2.63,10.51-3.95,16.94-3.95,8.14,0,14.85,2.05,20.12,6.16s8.59,9.75,9.96,16.94h-17.15c-.89-2.67-2.43-4.72-4.62-6.16-2.19-1.44-4.96-2.16-8.32-2.16-4.59,0-8.26,1.51-11.04,4.52-2.77,3.01-4.16,7.26-4.16,12.73s1.4,9.72,4.21,12.73c2.81,3.01,6.47,4.52,10.98,4.52,7.25,0,11.67-3.08,13.24-9.24h17.14c-1.23,7.53-4.48,13.41-9.75,17.66-5.27,4.25-12.15,6.37-20.64,6.37Z"/>
      <path class="st0" d="M379.82,43.42c-2.6,0-4.81-.91-6.62-2.72s-2.72-4.02-2.72-6.62.91-4.81,2.72-6.62,4.02-2.72,6.62-2.72,4.81.91,6.62,2.72,2.72,4.02,2.72,6.62-.91,4.81-2.72,6.62-4.02,2.72-6.62,2.72ZM371.3,111.08v-61.6h17.04v61.6h-17.04Z"/>
      <path class="st0" d="M428.27,112.31c-6.3,0-11.65-1.33-16.07-4-4.42-2.67-7.75-6.42-10.01-11.24-2.26-4.82-3.39-10.42-3.39-16.78s1.09-12.06,3.29-16.89c2.19-4.83,5.39-8.55,9.6-11.19,4.21-2.63,9.26-3.95,15.14-3.95,4.52,0,8.4.84,11.65,2.51,3.25,1.68,5.77,4.05,7.55,7.14h.41V24.84h17.04v69.4h8.42v16.83h-17.25v-10.06h-4.31c-2.19,3.56-5.12,6.33-8.78,8.32-3.66,1.98-8.09,2.98-13.29,2.98ZM431.45,97.53c4.58,0,8.23-1.28,10.93-3.85,2.7-2.57,4.05-6.11,4.05-10.63v-5.54c0-4.52-1.35-8.06-4.05-10.62-2.71-2.57-6.35-3.85-10.93-3.85-5.2,0-9.1,1.54-11.7,4.62s-3.9,7.29-3.9,12.63,1.3,9.55,3.9,12.63,6.5,4.62,11.7,4.62Z"/>
      <path class="st0" d="M501.37,112.21c-7.26,0-12.94-1.76-17.04-5.29-4.1-3.52-6.16-8.16-6.16-13.91,0-6.09,2.12-10.78,6.37-14.06,4.24-3.29,10.33-4.93,18.27-4.93h17.66v-2.36c0-6.64-3.97-9.96-11.91-9.96-6.91,0-11.09,2.4-12.52,7.19h-16.94c1.37-6.78,4.55-11.91,9.55-15.4,4.99-3.49,11.63-5.24,19.91-5.24,9.17,0,16.17,2.05,20.99,6.16,4.83,4.11,7.24,10.1,7.24,17.97v21.87h8.01v16.83h-17.25v-10.06h-4.31c-2.12,3.56-4.96,6.32-8.52,8.27-3.56,1.95-8.01,2.93-13.35,2.93ZM503.93,99.27c3.22,0,6.06-.58,8.52-1.75,2.46-1.16,4.41-2.72,5.85-4.67,1.44-1.95,2.16-4.16,2.16-6.62v-.92h-16.84c-6.16,0-9.24,2.29-9.24,6.88,0,2.26.86,4,2.57,5.24,1.71,1.23,4.04,1.85,6.98,1.85Z"/>
    </g>
  </g>
  <g>
    <path class="st0" d="M544.58,111.04c-.97,0-1.46-.4-1.46-1.21,0-.73.65-1.25,1.94-1.58l1.94-.36c1.62-.32,3.02-1.11,4.19-2.37,1.17-1.25,2.29-3.02,3.34-5.29l36.32-75.92c.41-.81.81-1.34,1.22-1.58.4-.24.77-.37,1.09-.37.41,0,.75.12,1.03.37.28.24.43.77.43,1.58l1.34,77.02c.08,2.27.36,3.83.85,4.68.49.85,1.5,1.48,3.04,1.88l1.58.36c.97.24,1.46.73,1.46,1.46,0,.89-.69,1.34-2.06,1.34h-20.04c-1.05,0-1.58-.4-1.58-1.21,0-.89.81-1.42,2.43-1.58l2.43-.24c1.37-.16,2.33-.61,2.86-1.34.52-.73.79-1.98.79-3.77l-.24-18.83c0-2.11-1.09-3.16-3.28-3.16h-13c-2.11,0-3.69,1.05-4.74,3.16l-7.9,16.28c-2.19,4.62-1.46,7.17,2.19,7.65l1.7.24c1.21.16,1.82.65,1.82,1.46,0,.89-.69,1.34-2.06,1.34h-17.62ZM571.67,77.27h13.61c1.37,0,2.06-.69,2.06-2.06l-.24-33.16h-.61l-15.91,33.16c-.33.57-.36,1.05-.12,1.46.24.4.65.61,1.21.61Z"/>
    <path class="st0" d="M611.88,109.46l11.54-48.47c.41-1.78.47-3.18.18-4.19-.29-1.01-1.03-1.52-2.25-1.52-1.46,0-3.06,1.08-4.8,3.22-1.74,2.15-3.7,6.22-5.89,12.21-.32,1.05-.89,1.58-1.7,1.58-1.21,0-1.54-.73-.97-2.19,1.78-5.59,3.67-9.96,5.65-13.12s3.99-5.38,6.01-6.68c2.03-1.29,3.89-1.94,5.59-1.94,2.67,0,4.57.99,5.71,2.97,1.13,1.99,1.17,5.24.12,9.78l-3.04,13.12c-.08.57.04.89.36.97.33.08.61-.12.85-.61,3.16-6.56,6.19-11.76,9.11-15.61,2.92-3.85,5.67-6.58,8.26-8.2,2.59-1.62,4.94-2.43,7.05-2.43,2.99,0,5.18,1.21,6.56,3.64,1.38,2.43,1.38,6.16,0,11.18l-9.23,35.23c-.57,2.27-.61,3.97-.12,5.1.49,1.13,1.38,1.7,2.67,1.7,1.62,0,3.22-1.07,4.8-3.22,1.58-2.15,3.22-6.21,4.92-12.21.24-.89.77-1.34,1.58-1.34.65,0,1.03.24,1.16.73.12.49.1,1.05-.06,1.7-1.54,5.51-3.2,9.82-4.98,12.94-1.79,3.12-3.58,5.28-5.41,6.5-1.82,1.21-3.66,1.82-5.53,1.82-2.92,0-5.1-1.22-6.56-3.64-1.46-2.43-1.54-6.2-.24-11.3l9.35-35.23c.89-3.16,1.04-5.35.43-6.56s-1.48-1.82-2.61-1.82c-1.78,0-3.81,1.11-6.07,3.34-2.27,2.23-4.58,5.27-6.93,9.11-2.35,3.85-4.66,8.2-6.93,13.06-2.27,4.86-4.31,9.92-6.13,15.19-1.82,5.27-3.3,10.41-4.43,15.43-.24.89-.81,1.34-1.7,1.34h-4.98c-1.13,0-1.58-.53-1.34-1.58Z"/>
    <path class="st0" d="M679.54,112.14c-2.92,0-5.18-1.25-6.8-3.77-1.62-2.51-2.43-6.2-2.43-11.05s.65-9.25,1.94-13.91c1.3-4.66,3.08-9.09,5.35-13.3,2.27-4.21,4.84-7.94,7.71-11.18,2.87-3.24,5.91-5.81,9.11-7.71,3.2-1.9,6.38-2.85,9.54-2.85,1.54,0,2.99.3,4.37.91,1.37.61,2.51,1.56,3.4,2.85.49.73.97,1.09,1.46,1.09s.97-.36,1.46-1.09c.89-1.29,1.62-2.13,2.18-2.49s1.1-.55,1.58-.55c1.05,0,1.46.57,1.22,1.7l-10.81,46.53c-1.21,5.27-.4,7.9,2.43,7.9,1.86,0,3.54-1.25,5.04-3.76,1.49-2.51,3.02-6.4,4.55-11.66.24-.89.77-1.34,1.58-1.34.57,0,.93.24,1.09.73.16.49.16,1.05,0,1.7-1.54,7.61-3.6,13.06-6.19,16.34-2.6,3.28-5.71,4.92-9.35,4.92-3.16,0-5.41-1.34-6.74-4.01s-1.48-6.32-.42-10.93l1.58-6.68c.16-.57.06-.89-.3-.97s-.67.12-.91.61c-4.46,8.18-8.4,13.89-11.85,17.13-3.44,3.24-6.7,4.86-9.78,4.86ZM682.58,105.94c1.94,0,4.09-1.17,6.44-3.52,2.35-2.35,4.68-5.38,6.99-9.11,2.31-3.72,4.43-7.73,6.38-12.03,1.94-4.29,3.5-8.42,4.68-12.39,1.17-3.97,1.76-7.33,1.76-10.08,0-4.94-1.74-7.41-5.22-7.41-2.11,0-4.33.95-6.68,2.85-2.35,1.9-4.6,4.48-6.74,7.71-2.15,3.24-4.09,6.9-5.83,10.99-1.74,4.09-3.14,8.34-4.19,12.75-1.05,4.41-1.58,8.73-1.58,12.94,0,2.84.34,4.76,1.03,5.77.69,1.02,1.68,1.52,2.98,1.52Z"/>
    <path class="st0" d="M735.3,112.26c-2.67,0-4.57-.99-5.71-2.98-1.13-1.98-1.17-5.24-.12-9.78l15.43-66.2c.4-1.46.42-2.47.06-3.04s-1.11-.89-2.25-.97l-3.64-.36c-1.21-.08-1.74-.61-1.58-1.58.16-.73.73-1.17,1.7-1.34,2.91-.49,5.5-1.07,7.77-1.76,2.27-.69,4.09-1.6,5.47-2.73.65-.49,1.25-.73,1.82-.73.97,0,1.34.61,1.09,1.82l-17.98,77.02c-.41,1.78-.47,3.18-.18,4.19.28,1.01,1.03,1.52,2.24,1.52,1.46,0,3.06-1.07,4.8-3.22,1.74-2.15,3.7-6.21,5.89-12.21.33-1.05.89-1.58,1.7-1.58,1.22,0,1.54.73.97,2.19-1.7,5.51-3.58,9.86-5.65,13.06-2.06,3.2-4.11,5.45-6.13,6.74-2.03,1.29-3.93,1.94-5.71,1.94Z"/>
    <path class="st0" d="M752.18,137.16c-3.08,0-5.47-.79-7.17-2.37-1.7-1.58-2.55-3.5-2.55-5.77,0-1.7.45-2.97,1.34-3.82.9-.85,1.87-1.28,2.92-1.28,1.54,0,2.63.4,3.28,1.21s1.13,1.76,1.46,2.85c.33,1.09.83,2.05,1.52,2.85s1.8,1.21,3.34,1.21c2.99,0,5.95-1.19,8.87-3.58,2.92-2.39,5.3-5.67,7.17-9.84,1.86-4.17,2.67-8.85,2.43-14.03l-1.82-43.61c-.08-2.11-.45-3.58-1.09-4.43s-1.46-1.28-2.43-1.28c-1.78,0-3.48,1.08-5.1,3.22-1.62,2.15-2.96,6.22-4.01,12.21-.24,1.05-.77,1.58-1.58,1.58-1.13,0-1.58-.73-1.34-2.19.97-5.59,2.33-9.96,4.07-13.12s3.6-5.38,5.59-6.68c1.98-1.29,3.82-1.94,5.53-1.94,2.51,0,4.5.87,5.95,2.61,1.46,1.74,2.27,4.72,2.43,8.93l1.7,46.65c0,.57.18.91.55,1.03.36.12.71-.06,1.03-.55,2.84-3.97,5.41-8.08,7.71-12.33,2.31-4.25,4.15-8.44,5.53-12.57,1.37-4.13,2.06-7.93,2.06-11.42s-.36-6.09-1.09-8.08c-.73-1.98-1.48-3.66-2.25-5.04-.77-1.38-1.16-2.87-1.16-4.49,0-3.16,1.38-4.74,4.13-4.74,3.88,0,5.83,4.29,5.83,12.88,0,4.7-.81,9.82-2.43,15.37-1.62,5.55-3.82,11.18-6.62,16.89-2.79,5.71-5.99,11.16-9.59,16.34-3.61,5.18-7.37,9.84-11.3,13.97-3.93,4.13-7.85,7.39-11.78,9.78-3.93,2.39-7.64,3.58-11.12,3.58Z"/>
    <path class="st0" d="M818.63,112.14c-2.75,0-4.9-1.09-6.44-3.28-1.54-2.19-1.79-5.71-.73-10.57l10.08-43.98c.24-1.21-.24-1.82-1.46-1.82h-4.62c-1.13,0-1.7-.52-1.7-1.58,0-.57.2-1.01.61-1.34.4-.32.89-.49,1.46-.49h4.37c1.86,0,2.96-.85,3.28-2.55l2.92-13c.24-.89.81-1.34,1.7-1.34h4.98c1.13,0,1.58.53,1.34,1.58l-3.04,13.48c-.24,1.21.24,1.82,1.46,1.82h6.93c1.37,0,2.06.53,2.06,1.58,0,1.22-.85,1.82-2.55,1.82h-6.56c-1.78,0-2.88.85-3.28,2.55l-10.2,44.46c-.41,1.78-.35,3.18.18,4.19.53,1.01,1.44,1.52,2.73,1.52,1.86,0,3.58-1.05,5.17-3.16,1.58-2.11,3.26-6.11,5.04-12.02.32-1.05.85-1.58,1.58-1.58.57,0,.93.24,1.1.73.16.49.04,1.38-.36,2.67-1.54,5.51-3.22,9.72-5.04,12.63-1.82,2.91-3.67,4.92-5.53,6.01-1.86,1.09-3.69,1.64-5.47,1.64Z"/>
    <path class="st0" d="M854.1,112.26c-2.67,0-4.57-.99-5.71-2.98-1.13-1.98-1.17-5.24-.12-9.78l8.99-38.51c.4-1.78.47-3.18.18-4.19-.28-1.01-1.03-1.52-2.24-1.52-1.46,0-3.06,1.08-4.8,3.22-1.74,2.15-3.7,6.22-5.89,12.21-.33,1.05-.89,1.58-1.7,1.58-1.22,0-1.54-.73-.97-2.19,1.78-5.59,3.66-9.96,5.65-13.12,1.98-3.16,3.99-5.38,6.01-6.68,2.02-1.29,3.88-1.94,5.59-1.94,2.84,0,4.82.99,5.95,2.97,1.13,1.99,1.17,5.24.12,9.78l-8.99,38.51c-.41,1.78-.47,3.18-.18,4.19s1.03,1.52,2.25,1.52c1.46,0,3.05-1.07,4.8-3.22s3.7-6.21,5.89-12.21c.32-1.05.89-1.58,1.7-1.58,1.21,0,1.54.73.97,2.19-1.7,5.51-3.58,9.86-5.65,13.06-2.06,3.2-4.11,5.45-6.13,6.74-2.03,1.29-3.93,1.94-5.71,1.94ZM864.06,37.55c-1.54,0-2.81-.55-3.82-1.64-1.02-1.09-1.52-2.41-1.52-3.95,0-2.19.67-3.93,2-5.22s2.86-1.94,4.56-1.94,2.98.51,4.07,1.52c1.09,1.01,1.64,2.33,1.64,3.95,0,2.27-.69,4.05-2.06,5.35-1.38,1.3-3,1.94-4.86,1.94Z"/>
    <path class="st0" d="M891.52,112.14c-4.45,0-8.14-1.84-11.05-5.53-2.92-3.69-4.37-8.4-4.37-14.15,0-5.42.87-10.75,2.61-15.97,1.74-5.23,4.09-9.96,7.05-14.21,2.96-4.25,6.23-7.63,9.84-10.14,3.6-2.51,7.23-3.76,10.87-3.76,3.89,0,7.17,1.05,9.84,3.16.4.32.65.59.73.79.08.2.04.63-.12,1.28l-3.28,15.91c-.24,1.13-.77,1.7-1.58,1.7-.89,0-1.42-.61-1.58-1.82l-.6-8.62c-.24-3.72-.79-6.15-1.64-7.29-.85-1.13-2.09-1.7-3.7-1.7-2.27,0-4.58,1.11-6.93,3.34-2.35,2.23-4.51,5.22-6.5,8.99-1.98,3.76-3.56,7.94-4.74,12.51-1.17,4.58-1.76,9.21-1.76,13.91,0,10.2,3.32,15.31,9.96,15.31,3.16,0,6.01-1.46,8.56-4.37,2.55-2.92,4.92-7.45,7.11-13.61.24-.81.81-1.21,1.7-1.21.48,0,.77.18.85.55.08.37,0,1.08-.24,2.13-.81,4.45-2.27,8.38-4.37,11.78-2.1,3.4-4.6,6.09-7.47,8.08-2.87,1.98-5.93,2.98-9.17,2.98Z"/>
    <path class="st0" d="M931,112.14c-2.67,0-5.49-.41-8.44-1.22-2.96-.81-5.21-1.82-6.75-3.04-.57-.49-.81-1.21-.73-2.19l2.67-15.91c.16-1.05.65-1.58,1.46-1.58.89,0,1.34.57,1.34,1.7l.24,5.83c.16,4.61,1.28,8,3.34,10.14,2.06,2.15,4.6,3.22,7.59,3.22,2.59,0,4.82-.83,6.68-2.49s2.79-4.11,2.79-7.35c0-1.86-.28-3.58-.85-5.16-.57-1.58-1.46-3.28-2.67-5.1-1.22-1.82-2.88-4.03-4.98-6.62-2.75-3.56-4.8-6.62-6.13-9.17s-2-5.2-2-7.96c0-5.1,1.6-9.19,4.8-12.27,3.2-3.08,7.27-4.61,12.21-4.61,2.19,0,4.31.32,6.38.97,2.07.65,3.79,1.62,5.17,2.91.73.57.97,1.3.73,2.19l-3.4,16.28c-.24,1.05-.73,1.58-1.46,1.58s-1.18-.57-1.34-1.7l-.37-5.83c-.32-4.86-.95-8.34-1.88-10.45-.93-2.11-2.86-3.16-5.77-3.16-2.6,0-4.7.89-6.32,2.67-1.62,1.78-2.43,3.93-2.43,6.44,0,2.67.73,5.12,2.19,7.35s3.44,5.04,5.95,8.44c3.32,4.37,5.57,7.86,6.74,10.45,1.17,2.59,1.76,5.23,1.76,7.9,0,3.4-.75,6.44-2.25,9.11s-3.5,4.78-6.01,6.32-5.26,2.31-8.26,2.31Z"/>
  </g>
</svg>