<?xml version="1.0" encoding="UTF-8"?>
<svg id="Layer_1" xmlns="http://www.w3.org/2000/svg" version="1.1" viewBox="0 0 681.64 173.48">
  <defs>
    <style>
      .st0 {
        fill: #fff;
      }
    </style>
  </defs>
  <g>
    <path class="st0" d="M197.45,138.78V34.7h21.72v85.07h53.58v19.02h-75.3Z"/>
    <path class="st0" d="M312.97,140.2c-10.71,0-18.93-2.83-24.67-8.48-5.74-5.65-8.61-13.36-8.61-23.13v-46.9h21.33v42.79c0,5.57,1.43,9.75,4.3,12.53s7.17,4.18,12.91,4.18,10.47-1.5,13.68-4.5c3.21-3,4.82-7.28,4.82-12.85v-42.15h21.33v56.03h10.54v21.07h-21.59v-12.59h-5.4c-3.08,4.54-6.83,8.01-11.24,10.41-4.41,2.4-10.22,3.6-17.41,3.6Z"/>
    <path class="st0" d="M416.67,140.32c-8.05,0-15.1-1.65-21.14-4.95-6.04-3.29-10.75-7.94-14.14-13.94-3.38-5.99-5.08-13.06-5.08-21.2s1.67-15.21,5.01-21.2c3.34-6,8.05-10.64,14.13-13.94,6.08-3.3,13.15-4.95,21.2-4.95,10.19,0,18.59,2.57,25.19,7.71s10.75,12.21,12.47,21.2h-21.46c-1.11-3.34-3.04-5.91-5.78-7.71-2.74-1.8-6.21-2.7-10.41-2.7-5.74,0-10.34,1.89-13.81,5.65-3.47,3.77-5.2,9.08-5.2,15.94s1.76,12.16,5.27,15.93c3.51,3.77,8.1,5.65,13.75,5.65,9.08,0,14.61-3.85,16.58-11.56h21.46c-1.54,9.42-5.61,16.79-12.21,22.1-6.6,5.31-15.21,7.97-25.83,7.97Z"/>
    <path class="st0" d="M475.14,54.1c-3.26,0-6.02-1.13-8.29-3.4-2.27-2.27-3.4-5.03-3.4-8.29s1.13-6.02,3.4-8.29,5.03-3.41,8.29-3.41,6.02,1.14,8.29,3.41c2.27,2.27,3.41,5.03,3.41,8.29s-1.14,6.02-3.41,8.29-5.03,3.4-8.29,3.4ZM464.47,138.78V61.68h21.33v77.1h-21.33Z"/>
    <path class="st0" d="M535.79,140.32c-7.88,0-14.59-1.67-20.11-5.01-5.53-3.34-9.7-8.03-12.53-14.07-2.83-6.04-4.24-13.04-4.24-21.01s1.37-15.1,4.11-21.14c2.74-6.04,6.74-10.71,12.01-14.01,5.27-3.3,11.59-4.95,18.96-4.95,5.65,0,10.51,1.05,14.58,3.15,4.07,2.1,7.22,5.08,9.45,8.93h.51V30.84h21.33v86.87h10.54v21.07h-21.59v-12.59h-5.4c-2.74,4.46-6.4,7.93-10.99,10.41-4.58,2.48-10.13,3.73-16.64,3.73ZM539.77,121.82c5.74,0,10.3-1.61,13.69-4.82,3.38-3.21,5.08-7.65,5.08-13.3v-6.94c0-5.65-1.69-10.09-5.08-13.3-3.39-3.21-7.95-4.82-13.69-4.82-6.51,0-11.39,1.93-14.65,5.78-3.26,3.85-4.88,9.13-4.88,15.81s1.63,11.95,4.88,15.8c3.26,3.85,8.14,5.78,14.65,5.78Z"/>
    <path class="st0" d="M627.28,140.2c-9.08,0-16.19-2.2-21.33-6.62-5.14-4.41-7.71-10.22-7.71-17.41,0-7.62,2.66-13.49,7.97-17.6,5.31-4.11,12.93-6.17,22.87-6.17h22.1v-2.95c0-8.31-4.97-12.46-14.91-12.46-8.65,0-13.88,3-15.68,9h-21.2c1.71-8.48,5.69-14.91,11.95-19.28,6.25-4.37,14.56-6.55,24.93-6.55,11.48,0,20.24,2.57,26.28,7.71,6.04,5.14,9.06,12.64,9.06,22.49v27.37h10.02v21.07h-21.59v-12.59h-5.4c-2.66,4.46-6.21,7.91-10.66,10.35-4.46,2.44-10.02,3.66-16.7,3.66ZM630.49,124c4.03,0,7.58-.73,10.67-2.19,3.08-1.45,5.52-3.4,7.32-5.85,1.8-2.44,2.7-5.2,2.7-8.29v-1.16h-21.08c-7.71,0-11.56,2.87-11.56,8.61,0,2.83,1.07,5.01,3.21,6.55,2.14,1.54,5.05,2.31,8.74,2.31Z"/>
  </g>
  <g>
    <ellipse class="st0" cx="19.99" cy="86.78" rx="8.38" ry="50.62"/>
    <ellipse class="st0" cx="3.87" cy="86.78" rx="3.87" ry="29.34"/>
    <path class="st0" d="M148.97,32.89c-3.65,0-6.99,4.55-9.61,12.13-.39,1.12-1.99,1.01-2.22-.15-3.76-19.31-10.06-31.97-17.19-31.97-5.46,0-10.43,7.42-14.15,19.57-.35,1.13-1.96,1.08-2.23-.08C99.09,12.64,92.2,0,84.48,0c-6.72,0-12.82,9.59-17.24,25.11-.3,1.05-1.74,1.12-2.17.12-3.31-7.79-7.27-12.33-11.54-12.33-11.52,0-20.86,33.06-20.86,73.84s9.34,73.84,20.86,73.84c4.27,0,8.24-4.54,11.54-12.33.42-1,1.87-.93,2.17.12,4.43,15.52,10.52,25.11,17.24,25.11,7.72,0,14.61-12.64,19.1-32.39.26-1.16,1.88-1.21,2.23-.08,3.72,12.15,8.69,19.57,14.15,19.57,7.13,0,13.42-12.66,17.19-31.97.23-1.16,1.83-1.27,2.22-.15,2.62,7.58,5.97,12.13,9.61,12.13,8.4,0,15.21-24.11,15.21-53.85s-6.81-53.85-15.21-53.85ZM96.18,87.34c-5.57,0-10.09-7.19-10.09-16.06s4.52-16.06,10.09-16.06,10.09,7.19,10.09,16.06-4.52,16.06-10.09,16.06ZM126.45,87.34c-5.57,0-10.09-7.19-10.09-16.06s4.52-16.06,10.09-16.06,10.09,7.19,10.09,16.06-4.52,16.06-10.09,16.06Z"/>
  </g>
</svg>
